# xmcd
#
# Track frame offsets:
#	150
#	25767
#	40679
#	52897
#	66006
#	77969
#	106665
#	117124
#	133249
#	145081
#	157046
#	170850
#	187777
#	201712
#	215855
#	226294
#	236733
#	249389
#	256526
#	269323
#
# Disc length: 3844 seconds
#
# Revision: 0
# Processed by: cddbd v1.5.2PL0 Copyright (c) Steve Scherf et al.
# Submitted via: EasyCDDAExtractor 10.0.1.1
#
DISCID=1b0f0214
DTITLE=Various Artist - Yesterday once more - Under the broadwalk
DYEAR=2008
DGENRE=Country
TTITLE0=Kool and the Gang - Cherish
TTITLE1=Percy Sledge - Warm and tender love
TTITLE2=The Driffters - Under the broadwalk
TTITLE3=Aretha Franklin - Don't play that song (you lied)
TTITLE4=Aaron Neville - Tell it like it is
TTITLE5=Al Green - How can you mend a broken heart
TTITLE6=The NMarcels - Blue Moon
TTITLE7=The Carpentes - Desperado
TTITLE8=Andy Williams - Tonight
TTITLE9=Chad and Jeremy - A summer song
TTITLE10=Dean Martin - you belong to me
TTITLE11=Doris Day - Dream a lillte dream of me
TTITLE12=Engelbert Humperdinck - Red sails on the sunset
TTITLE13=The Platters - Harbor lights
TTITLE14=Pat Boone - Love letters in the sand
TTITLE15=Ricky Nelson - Young world
TTITLE16=Trini Lopez - Michael (Raw the boat ashore)
TTITLE17=Oliver - Good morning starshine
TTITLE18=Classics IV feat. Denis Yost - Stormy
TTITLE19=Billy Ocean - Love really hurts without you
EXTD=
EXTT0=
EXTT1=
EXTT2=
EXTT3=
EXTT4=
EXTT5=
EXTT6=
EXTT7=
EXTT8=
EXTT9=
EXTT10=
EXTT11=
EXTT12=
EXTT13=
EXTT14=
EXTT15=
EXTT16=
EXTT17=
EXTT18=
EXTT19=
PLAYORDER=
